<?xml version="1.0" encoding="UTF-8"?><svg id="Layer_2" xmlns="http://www.w3.org/2000/svg" viewBox="0 0 360.57 323.32"><defs><style>.cls-1{fill:#fff;}</style></defs><g id="Layer_1-2"><g><path class="cls-1" d="M285.97,94.98c-1.3,3.42,.68,4.28,3.3,4.74,4.21,.74,8.39,1.63,12.62,2.29,2.36,.37,3.64,1.43,4.12,3.87,.67,3.47,1.85,6.85,2.5,10.33,.45,2.45,1.77,3.49,4.05,3.98,4.53,.99,9.09,1.96,13.51,3.35,1.42,.45,3.04,2,3.52,3.4,1.5,4.38,2.39,8.97,3.75,13.41,.77,2.52,.46,5.71,3.98,6.9,.57,.19,.8,2.76,.46,4.03-2.2,8.09-3.86,16.43-7.08,24.1-6.84,16.26-17.14,30.53-29.15,43.26-17.93,19.01-35.98,38.02-55.17,55.73-22.72,20.98-50.57,32.76-80.39,40.13-28.64,7.07-57.75,9.46-87.12,8.67-23.68-.64-47.19-3.23-70.41-8.15-1.07-.23-2.15-.49-3.17-.88-3.68-1.39-5.51-4.33-5.25-8.31,.24-3.67,2.42-6.54,6.24-7.07,8.45-1.17,16.97-1.77,25.41-2.98,55.99-8.03,105.61-28.98,144.64-71.43,19.71-21.44,34.08-45.91,43.5-73.51,6.32-18.5,16.82-34.42,32.97-46.05,9.41-6.77,21.48-10.32,33.2-9.82Z"/><path class="cls-1" d="M324.17,111.69c-1.51-1.66-2.65-2.9-4.11-4.51,1.11-1.22,2.21-2.45,3.34-3.64,10.71-11.31,20.61-23.17,26.81-37.7,7.96-18.63,4.75-34.79-10.56-47.43-5.65-4.66-12.64-7.7-19.05-11.43-1.04-.61-2.54-.64-3.31-1.44-.95-.99-1.36-2.5-2-3.78,1.5-.61,3.38-2.11,4.45-1.67,5.63,2.3,11.34,4.63,16.49,7.8,11.81,7.28,20.91,16.96,23.56,31.18,1.85,9.97,.33,19.59-3.7,28.96-7.23,16.84-18.78,30.4-31.91,43.66Z"/></g></g></svg>