<?xml version="1.0" encoding="UTF-8"?><svg id="Layer_2" xmlns="http://www.w3.org/2000/svg" viewBox="0 0 1154.48 480.84"><defs><style>.cls-1{letter-spacing:0em;}.cls-2,.cls-3,.cls-4{fill:#fff;}.cls-5{fill:#a22604;}.cls-3{font-family:Montserrat-LightItalic, Montserrat;font-size:96.03px;}.cls-6{letter-spacing:0em;}.cls-4{font-family:Betterlett-Regular, Betterlett;font-size:132.52px;}</style></defs><g id="Layer_1-2"><g><path class="cls-2" d="M134.15,180.25c-9.91,0-18.61,6.43-26.11,19.28-7.5,12.85-11.25,28.11-11.25,45.79v107.65h28.52v7.23H0v-7.23H22.09V176.23H0v-7.23H96.8v38.56c3.48-13.66,10.17-24.16,20.08-31.53,9.9-7.36,21.15-11.04,33.74-11.04s22.83,3.55,30.73,10.64c7.9,7.1,11.85,17.14,11.85,30.13s-2.95,22.96-8.83,29.92c-5.89,6.96-14.93,10.44-27.11,10.44s-21.16-4.01-26.91-12.05c-5.76-8.03-6.5-19.14-2.21-33.33h14.46c6.69-13.66,3.88-20.49-8.43-20.49Z"/><path class="cls-2" d="M224.73,337.49c-17.27-17.8-25.91-42.57-25.91-74.31s9.7-56.03,29.12-72.9c19.41-16.87,44.11-25.3,74.11-25.3,60.78,0,89.97,30.53,87.56,91.58h-113.27v15.67c0,26.24,3.34,46.06,10.04,59.45,6.69,13.39,18.34,20.08,34.94,20.08,31.06,0,51.41-16.6,61.05-49.81l7.23,1.2c-5.09,19.28-14.26,34.28-27.51,44.99-13.25,10.72-33.14,16.07-59.64,16.07-34.54,0-60.45-8.9-77.72-26.71Zm52.01-88.96h41.37v-19.69c0-21.69-1.27-36.48-3.82-44.38-2.55-7.9-7.63-11.85-15.26-11.85s-13.25,4.22-16.87,12.65c-3.61,8.43-5.42,22.96-5.42,43.58v19.69Z"/><path class="cls-2" d="M516.53,172.21c-11.79,0-20.22,6.43-25.3,19.28-5.09,12.85-7.63,34.14-7.63,63.86v20.89c0,26.51,2.94,45.52,8.83,57.03,5.89,11.52,16.73,17.27,32.53,17.27s28.38-5.36,37.76-16.07c9.37-10.71,15.4-22.9,18.08-36.55l7.23,.8c-5.09,23.03-14.46,39.63-28.12,49.8-13.93,10.45-33.07,15.67-57.44,15.67-31.07,0-54.9-8.37-71.49-25.1-16.61-16.74-24.9-41.23-24.9-73.51s9.44-57.09,28.32-74.51c18.88-17.4,45.19-26.11,78.92-26.11,23.83,0,42.04,4.62,54.63,13.86,12.58,9.24,18.88,20.83,18.88,34.74s-3.01,24.1-9.04,30.52-14.33,9.64-24.9,9.64-19.08-2.81-25.51-8.44c-6.43-5.62-9.64-13.92-9.64-24.9,0-4.82,.67-9.64,2.01-14.46h13.25c1.87-5.35,2.81-10.17,2.81-14.46,0-12.85-6.43-19.28-19.28-19.28Z"/><path class="cls-5" d="M607.7,169h98.41v183.96h22.49v7.23h-119.29v-7.23h22.09V176.23h-23.7v-7.23Zm60.65-46.18c-14.2,0-24.3-3.61-30.33-10.85-6.03-7.23-9.04-16.2-9.04-26.91s3.27-19.54,9.84-26.51c6.56-6.96,16.53-10.45,29.92-10.45s23.56,3.15,30.53,9.44c6.96,6.29,10.44,15.26,10.44,26.91s-3.35,20.96-10.04,27.92c-6.7,6.97-17.14,10.45-31.33,10.45Z"/><path class="cls-2" d="M821.37,169v31.73c10.44-23.83,28.92-35.75,55.43-35.75,23.03,0,40.9,8.3,53.62,24.9,12.71,16.61,19.08,41.77,19.08,75.51s-6.9,58.65-20.68,74.71c-13.79,16.06-34.48,24.1-62.06,24.1-12.85,0-22.49-1.61-28.92-4.82-6.43-3.22-11.65-8.17-15.66-14.86v104.03h51.81v7.23h-148.61v-7.23h22.09V176.23h-21.29v-7.23h95.19Zm46.59,27.51c-2.68-9.5-7.9-14.26-15.66-14.26s-14.73,5.02-20.89,15.06c-6.16,10.04-9.24,23.5-9.24,40.37v73.51c0,11.52,2.27,21.29,6.83,29.32,4.55,8.03,11.25,12.05,20.08,12.05s14.86-5.89,18.08-17.67c3.21-11.78,4.82-32.4,4.82-61.86v-20.88c0-27.58-1.34-46.12-4.02-55.63Z"/><path class="cls-2" d="M989.46,337.49c-17.27-17.8-25.91-42.57-25.91-74.31s9.7-56.03,29.12-72.9c19.41-16.87,44.11-25.3,74.11-25.3,60.78,0,89.97,30.53,87.56,91.58h-113.27v15.67c0,26.24,3.34,46.06,10.04,59.45,6.69,13.39,18.34,20.08,34.94,20.08,31.06,0,51.41-16.6,61.05-49.81l7.23,1.2c-5.09,19.28-14.26,34.28-27.51,44.99-13.25,10.72-33.14,16.07-59.64,16.07-34.54,0-60.45-8.9-77.72-26.71Zm52.01-88.96h41.37v-19.69c0-21.69-1.27-36.48-3.82-44.38-2.55-7.9-7.63-11.85-15.26-11.85s-13.25,4.22-16.87,12.65c-3.61,8.43-5.42,22.96-5.42,43.58v19.69Z"/></g><text class="cls-3" transform="translate(406.07 455.78)"><tspan x="0" y="0">bi</tspan><tspan class="cls-1" x="89.88" y="0">n</tspan><tspan class="cls-6" x="154.6" y="0">der</tspan></text><text class="cls-4" transform="translate(613.02 120.59)"><tspan x="0" y="0">the</tspan></text></g></svg>